<mxfile host="app.diagrams.net" modified="2022-05-28T07:56:43.414Z" agent="5.0 (Macintosh; Intel Mac OS X 10_15_7) AppleWebKit/605.1.15 (KHTML, like Gecko) Version/15.5 Safari/605.1.15" etag="k9phTwcotCMhHg0kmEO_" version="18.1.3" type="github">
  <diagram id="kgpKYQtTHZ0yAKxKKP6v" name="Page-1">
    <mxGraphModel dx="878" dy="717" grid="1" gridSize="10" guides="1" tooltips="1" connect="1" arrows="1" fold="1" page="1" pageScale="1" pageWidth="850" pageHeight="1100" math="0" shadow="0">
      <root>
        <mxCell id="0" />
        <mxCell id="1" parent="0" />
        <mxCell id="3nuBFxr9cyL0pnOWT2aG-1" value="Browser" style="shape=umlLifeline;perimeter=lifelinePerimeter;container=1;collapsible=0;recursiveResize=0;rounded=0;shadow=0;strokeWidth=1;fillColor=#21C0A5;strokeColor=#006658;fontColor=#5C5C5C;" parent="1" vertex="1">
          <mxGeometry x="120" y="110" width="100" height="520" as="geometry" />
        </mxCell>
        <mxCell id="3nuBFxr9cyL0pnOWT2aG-2" value="" style="points=[];perimeter=orthogonalPerimeter;rounded=0;shadow=0;strokeWidth=1;fillColor=#21C0A5;strokeColor=#006658;fontColor=#5C5C5C;" parent="3nuBFxr9cyL0pnOWT2aG-1" vertex="1">
          <mxGeometry x="45" y="70" width="10" height="400" as="geometry" />
        </mxCell>
        <mxCell id="3nuBFxr9cyL0pnOWT2aG-3" value="User choose to use google &#xa;account to login to YouTube" style="verticalAlign=bottom;startArrow=oval;endArrow=block;startSize=8;shadow=0;strokeWidth=1;strokeColor=#006658;fontColor=#5C5C5C;" parent="3nuBFxr9cyL0pnOWT2aG-1" target="3nuBFxr9cyL0pnOWT2aG-2" edge="1">
          <mxGeometry x="-1" y="-15" relative="1" as="geometry">
            <mxPoint x="-15" y="70" as="sourcePoint" />
            <mxPoint x="-15" y="-15" as="offset" />
          </mxGeometry>
        </mxCell>
        <mxCell id="3nuBFxr9cyL0pnOWT2aG-5" value="YouTube" style="shape=umlLifeline;perimeter=lifelinePerimeter;container=1;collapsible=0;recursiveResize=0;rounded=0;shadow=0;strokeWidth=1;fillColor=#21C0A5;strokeColor=#006658;fontColor=#5C5C5C;" parent="1" vertex="1">
          <mxGeometry x="390" y="110" width="150" height="450" as="geometry" />
        </mxCell>
        <mxCell id="3nuBFxr9cyL0pnOWT2aG-6" value="" style="points=[];perimeter=orthogonalPerimeter;rounded=0;shadow=0;strokeWidth=1;fillColor=#21C0A5;strokeColor=#006658;fontColor=#5C5C5C;" parent="3nuBFxr9cyL0pnOWT2aG-5" vertex="1">
          <mxGeometry x="70" y="80" width="10" height="30" as="geometry" />
        </mxCell>
        <mxCell id="WTOjRHDnHoNTzt0Hg4iq-6" value="" style="points=[];perimeter=orthogonalPerimeter;rounded=0;shadow=0;strokeWidth=1;fillColor=#21C0A5;strokeColor=#006658;fontColor=#5C5C5C;" vertex="1" parent="3nuBFxr9cyL0pnOWT2aG-5">
          <mxGeometry x="70" y="180" width="10" height="250" as="geometry" />
        </mxCell>
        <mxCell id="WTOjRHDnHoNTzt0Hg4iq-7" value="YouTube has got the grant code" style="shape=callout;whiteSpace=wrap;html=1;perimeter=calloutPerimeter;rounded=0;sketch=0;fontColor=#5C5C5C;strokeColor=#006658;fillColor=#21C0A5;position2=0;base=31;size=30;position=0.38;direction=west;" vertex="1" parent="3nuBFxr9cyL0pnOWT2aG-5">
          <mxGeometry x="-70" y="200" width="130" height="70" as="geometry" />
        </mxCell>
        <mxCell id="3nuBFxr9cyL0pnOWT2aG-8" value="GET www.youtube.com/google/auth" style="verticalAlign=bottom;endArrow=block;entryX=0;entryY=0;shadow=0;strokeWidth=1;strokeColor=#006658;fontColor=#5C5C5C;" parent="1" source="3nuBFxr9cyL0pnOWT2aG-2" target="3nuBFxr9cyL0pnOWT2aG-6" edge="1">
          <mxGeometry relative="1" as="geometry">
            <mxPoint x="275" y="160" as="sourcePoint" />
          </mxGeometry>
        </mxCell>
        <mxCell id="3nuBFxr9cyL0pnOWT2aG-9" value="302 redirection to www.google.com/auth" style="verticalAlign=bottom;endArrow=block;entryX=0.9;entryY=0.105;shadow=0;strokeWidth=1;strokeColor=#006658;fontColor=#5C5C5C;entryDx=0;entryDy=0;entryPerimeter=0;" parent="1" source="3nuBFxr9cyL0pnOWT2aG-6" target="3nuBFxr9cyL0pnOWT2aG-2" edge="1">
          <mxGeometry relative="1" as="geometry">
            <mxPoint x="240" y="200" as="sourcePoint" />
          </mxGeometry>
        </mxCell>
        <mxCell id="WTOjRHDnHoNTzt0Hg4iq-1" value="Google" style="shape=umlLifeline;perimeter=lifelinePerimeter;container=1;collapsible=0;recursiveResize=0;rounded=0;shadow=0;strokeWidth=1;fillColor=#21C0A5;strokeColor=#006658;fontColor=#5C5C5C;" vertex="1" parent="1">
          <mxGeometry x="630" y="110" width="100" height="450" as="geometry" />
        </mxCell>
        <mxCell id="WTOjRHDnHoNTzt0Hg4iq-2" value="" style="points=[];perimeter=orthogonalPerimeter;rounded=0;shadow=0;strokeWidth=1;fillColor=#21C0A5;strokeColor=#006658;fontColor=#5C5C5C;" vertex="1" parent="WTOjRHDnHoNTzt0Hg4iq-1">
          <mxGeometry x="45" y="130" width="10" height="40" as="geometry" />
        </mxCell>
        <mxCell id="WTOjRHDnHoNTzt0Hg4iq-10" value="" style="points=[];perimeter=orthogonalPerimeter;rounded=0;shadow=0;strokeWidth=1;fillColor=#21C0A5;strokeColor=#006658;fontColor=#5C5C5C;" vertex="1" parent="WTOjRHDnHoNTzt0Hg4iq-1">
          <mxGeometry x="45" y="215" width="10" height="165" as="geometry" />
        </mxCell>
        <mxCell id="WTOjRHDnHoNTzt0Hg4iq-3" value="GET www.google.com/auth" style="verticalAlign=bottom;endArrow=block;shadow=0;strokeWidth=1;strokeColor=#006658;fontColor=#5C5C5C;exitX=1;exitY=0.175;exitDx=0;exitDy=0;exitPerimeter=0;entryX=-0.1;entryY=0.2;entryDx=0;entryDy=0;entryPerimeter=0;" edge="1" parent="1" source="3nuBFxr9cyL0pnOWT2aG-2" target="WTOjRHDnHoNTzt0Hg4iq-2">
          <mxGeometry relative="1" as="geometry">
            <mxPoint x="180" y="250" as="sourcePoint" />
            <mxPoint x="680" y="248" as="targetPoint" />
          </mxGeometry>
        </mxCell>
        <mxCell id="WTOjRHDnHoNTzt0Hg4iq-4" value="302 redirection to www.youtube.com/callback?code=XXX" style="verticalAlign=bottom;endArrow=block;entryX=1.2;entryY=0.24;shadow=0;strokeWidth=1;strokeColor=#006658;fontColor=#5C5C5C;entryDx=0;entryDy=0;entryPerimeter=0;exitX=-0.1;exitY=0.9;exitDx=0;exitDy=0;exitPerimeter=0;" edge="1" parent="1" source="WTOjRHDnHoNTzt0Hg4iq-2" target="3nuBFxr9cyL0pnOWT2aG-2">
          <mxGeometry relative="1" as="geometry">
            <mxPoint x="440" y="280" as="sourcePoint" />
            <mxPoint x="180" y="280" as="targetPoint" />
          </mxGeometry>
        </mxCell>
        <mxCell id="WTOjRHDnHoNTzt0Hg4iq-5" value="GET www.youtube.com/callback?code=XXX" style="verticalAlign=bottom;endArrow=block;shadow=0;strokeWidth=1;strokeColor=#006658;fontColor=#5C5C5C;exitX=1;exitY=0.305;exitDx=0;exitDy=0;exitPerimeter=0;fontStyle=0;entryX=0;entryY=0.052;entryDx=0;entryDy=0;entryPerimeter=0;" edge="1" parent="1" source="3nuBFxr9cyL0pnOWT2aG-2" target="WTOjRHDnHoNTzt0Hg4iq-6">
          <mxGeometry relative="1" as="geometry">
            <mxPoint x="184" y="300" as="sourcePoint" />
            <mxPoint x="440" y="304" as="targetPoint" />
          </mxGeometry>
        </mxCell>
        <mxCell id="WTOjRHDnHoNTzt0Hg4iq-8" value="POST /getToken?code=XXX" style="verticalAlign=bottom;endArrow=block;shadow=0;strokeWidth=1;strokeColor=#006658;fontColor=#5C5C5C;exitX=0.9;exitY=0.18;exitDx=0;exitDy=0;exitPerimeter=0;fontStyle=0;entryX=-0.1;entryY=0.049;entryDx=0;entryDy=0;entryPerimeter=0;" edge="1" parent="1" source="WTOjRHDnHoNTzt0Hg4iq-6" target="WTOjRHDnHoNTzt0Hg4iq-10">
          <mxGeometry relative="1" as="geometry">
            <mxPoint x="480" y="335.53000000000003" as="sourcePoint" />
            <mxPoint x="660" y="334" as="targetPoint" />
          </mxGeometry>
        </mxCell>
        <mxCell id="WTOjRHDnHoNTzt0Hg4iq-11" value="GET /resourceA?token=yyy" style="verticalAlign=bottom;endArrow=block;shadow=0;strokeWidth=1;strokeColor=#006658;fontColor=#5C5C5C;exitX=0.9;exitY=0.18;exitDx=0;exitDy=0;exitPerimeter=0;fontStyle=0;entryX=-0.1;entryY=0.049;entryDx=0;entryDy=0;entryPerimeter=0;" edge="1" parent="1">
          <mxGeometry relative="1" as="geometry">
            <mxPoint x="470" y="450" as="sourcePoint" />
            <mxPoint x="675" y="450.0450000000001" as="targetPoint" />
          </mxGeometry>
        </mxCell>
        <mxCell id="WTOjRHDnHoNTzt0Hg4iq-12" value="response: token=yyy" style="verticalAlign=bottom;endArrow=block;entryX=0.9;entryY=0.272;shadow=0;strokeWidth=1;strokeColor=#006658;fontColor=#5C5C5C;entryDx=0;entryDy=0;entryPerimeter=0;exitX=0;exitY=0.2;exitDx=0;exitDy=0;exitPerimeter=0;" edge="1" parent="1" source="WTOjRHDnHoNTzt0Hg4iq-10" target="WTOjRHDnHoNTzt0Hg4iq-6">
          <mxGeometry relative="1" as="geometry">
            <mxPoint x="755" y="380" as="sourcePoint" />
            <mxPoint x="470" y="380" as="targetPoint" />
          </mxGeometry>
        </mxCell>
        <mxCell id="WTOjRHDnHoNTzt0Hg4iq-13" value="response: resource" style="verticalAlign=bottom;endArrow=block;entryX=0.9;entryY=0.272;shadow=0;strokeWidth=1;strokeColor=#006658;fontColor=#5C5C5C;entryDx=0;entryDy=0;entryPerimeter=0;exitX=-0.2;exitY=0.161;exitDx=0;exitDy=0;exitPerimeter=0;" edge="1" parent="1">
          <mxGeometry relative="1" as="geometry">
            <mxPoint x="674" y="480.0050000000001" as="sourcePoint" />
            <mxPoint x="470" y="480" as="targetPoint" />
          </mxGeometry>
        </mxCell>
        <mxCell id="WTOjRHDnHoNTzt0Hg4iq-14" value="response data: resource" style="verticalAlign=bottom;endArrow=block;entryX=1.1;entryY=0.873;shadow=0;strokeWidth=1;strokeColor=#006658;fontColor=#5C5C5C;entryDx=0;entryDy=0;entryPerimeter=0;exitX=-0.1;exitY=0.956;exitDx=0;exitDy=0;exitPerimeter=0;" edge="1" parent="1" source="WTOjRHDnHoNTzt0Hg4iq-6" target="3nuBFxr9cyL0pnOWT2aG-2">
          <mxGeometry relative="1" as="geometry">
            <mxPoint x="450" y="530" as="sourcePoint" />
            <mxPoint x="177" y="530" as="targetPoint" />
          </mxGeometry>
        </mxCell>
      </root>
    </mxGraphModel>
  </diagram>
</mxfile>
